<?xml version="1.0" encoding="UTF-8"?>
<!--Generator: Apple Native CoreSVG 232.5-->
<!DOCTYPE svg
PUBLIC "-//W3C//DTD SVG 1.1//EN"
       "http://www.w3.org/Graphics/SVG/1.1/DTD/svg11.dtd">
<svg version="1.1" xmlns="http://www.w3.org/2000/svg" xmlns:xlink="http://www.w3.org/1999/xlink" width="32.3067" height="34.3509">
 <g>
  <rect height="34.3509" opacity="0" width="32.3067" x="0" y="0"/>
  <path d="M18.3064 4.12236L20.3381 6.13243C20.5372 6.33148 20.7307 6.40134 21.0102 6.40134L23.8536 6.40134C25.968 6.40134 26.9114 7.36077 26.9114 9.46966L26.9114 12.3131C26.9114 12.5876 26.9973 12.7811 27.1908 12.9907L29.1959 15.0063C30.68 16.5015 30.6906 17.8333 29.1959 19.3286L28.6709 19.8563C28.1718 19.5263 27.6304 19.2572 27.0556 19.061L27.9968 18.1239C28.8126 17.2976 28.8126 17.0372 27.9968 16.2109L25.5877 13.8123C25.3258 13.5505 25.2082 13.267 25.2082 12.8926L25.2082 9.46966C25.2082 8.32114 24.9916 8.12056 23.8536 8.12056L20.4257 8.12056C20.0618 8.12056 19.7783 8.01351 19.5109 7.73557L17.1074 5.32144C16.2916 4.51622 16.0151 4.51622 15.1993 5.32144L12.7957 7.73557C12.5389 8.01351 12.2554 8.12056 11.881 8.12056L8.45307 8.12056C7.29903 8.12056 7.10398 8.30506 7.10398 9.46966L7.10398 12.8926C7.10398 13.267 6.98637 13.5505 6.72954 13.8123L4.31541 16.2109C3.50466 17.0372 3.50466 17.2976 4.31541 18.1239L6.72954 20.5225C6.98637 20.7843 7.10398 21.0678 7.10398 21.4423L7.10398 24.8652C7.10398 26.0137 7.31511 26.2143 8.45307 26.2143L11.881 26.2143C12.2554 26.2143 12.5389 26.3213 12.7957 26.5993L15.1993 29.0134C15.9866 29.7905 16.2716 29.8176 17.0253 29.0925C17.2155 29.6532 17.475 30.1817 17.7938 30.6693C16.5065 31.6842 15.317 31.5385 14.0002 30.2125L11.9686 28.2024C11.7695 28.0033 11.576 27.9335 11.3071 27.9335L8.45307 27.9335C6.33866 27.9335 5.39531 26.9741 5.39531 24.8652L5.39531 22.0217C5.39531 21.7473 5.31991 21.5538 5.1264 21.3441L3.1108 19.3286C1.62664 17.8333 1.61609 16.5015 3.1108 15.0063L5.1264 12.9907C5.31991 12.7811 5.39531 12.5876 5.39531 12.3131L5.39531 9.46966C5.39531 7.35022 6.33866 6.40134 8.45307 6.40134L11.3071 6.40134C11.576 6.40134 11.775 6.32595 11.9686 6.13243L13.9947 4.12236C15.4899 2.62161 16.8112 2.61659 18.3064 4.12236Z" fill="#408040"/>
  <path d="M20.1278 11.1722L21.4732 12.5162C21.9295 12.9711 22.0475 13.3096 21.9469 13.7766L21.8155 14.3893L22.1542 14.7255L22.4826 14.696C22.8274 14.6696 23.1102 14.7845 23.4424 15.1177L23.9422 15.6187C24.303 15.9795 24.3163 16.4367 23.9685 16.7901L22.0505 18.7067C21.7067 19.0559 21.2422 19.0386 20.8775 18.6805L20.3792 18.1862C20.0379 17.8529 19.9291 17.5656 19.9605 17.2167L19.9884 16.894L19.6373 16.5471L19.0415 16.662C18.8204 16.7073 18.6316 16.716 18.4496 16.6666L11.6918 24.1302C11.0419 24.8479 10.3013 24.8907 9.68815 24.2693L8.51614 23.0932C7.89495 22.472 7.94589 21.7344 8.64451 21.0911L16.0676 14.2344C16.0113 13.9957 16.0402 13.7336 16.1613 13.4334L16.5118 12.5738C15.6687 12.0397 14.7461 12.0388 13.7794 12.2698C13.3106 12.3859 12.95 12.1953 12.7819 11.9068C12.6156 11.6165 12.6355 11.2152 12.9317 10.9175C14.8736 8.97307 17.9503 8.99885 20.1278 11.1722ZM9.64251 21.8782C9.43279 22.0741 9.38354 22.2497 9.62017 22.4823L10.2965 23.1611C10.5306 23.3937 10.7114 23.3526 10.9031 23.1374L17.5305 15.9585L16.7532 15.1745ZM14.2173 11.2189C14.1488 11.2741 14.1804 11.3494 14.2668 11.3289C15.5643 10.9984 16.8689 11.3611 17.8788 12.3315L17.312 13.6796C17.2148 13.9158 17.2526 14.0533 17.4222 14.2188L18.5762 15.3729C18.7402 15.5327 18.8565 15.5557 19.0767 15.5179L20.0203 15.3591L21.0543 16.3959L21.0164 17.0135C21.0109 17.1612 21.0353 17.2185 21.1441 17.3299L21.4265 17.6151L22.8618 16.1867L22.5725 15.8975C22.4651 15.7901 22.4079 15.7738 22.2629 15.7794L21.6426 15.809L20.5976 14.7736L20.781 13.8505C20.823 13.6221 20.7959 13.4908 20.6319 13.331L19.1219 11.8276C17.7764 10.4779 15.7285 10.2019 14.2173 11.2189Z" fill="#408040"/>
  <path d="M24.4353 32.7899C27.8642 32.7899 30.7457 29.9295 30.7457 26.469C30.7457 23.0029 27.8958 20.1531 24.4353 20.1531C20.9748 20.1531 18.1194 23.0084 18.1194 26.469C18.1194 29.9401 20.9748 32.7899 24.4353 32.7899Z" fill="#60c060"/>
  <path d="M24.4514 22.3882C24.6539 22.3882 24.8032 22.4841 24.9836 22.6595L28.2371 25.712C28.4245 25.8784 28.505 26.0543 28.505 26.2784C28.505 26.673 28.2014 26.9765 27.8124 26.9554C27.6099 26.9449 27.4284 26.8594 27.2902 26.7262L26.2042 25.6346L25.1434 24.5367L25.1912 26.1969L25.1912 29.7758C25.1912 30.1698 24.856 30.4945 24.4514 30.4945C24.0413 30.4945 23.7005 30.1698 23.7005 29.7758L23.7005 26.1969L23.7643 24.5367L22.677 25.6346L21.607 26.7262C21.4793 26.8594 21.2823 26.966 21.0798 26.9554C20.6852 26.9554 20.3656 26.673 20.3867 26.2784C20.3973 26.0487 20.4777 25.8784 20.6652 25.712L23.8975 22.6595C24.1051 22.4625 24.2704 22.3882 24.4514 22.3882Z" fill="#ffffff"/>
 </g>
</svg>
